<svg class="c-header__logo-text" width="619" height="269" viewBox="0 0 619 269" fill="none" xmlns="http://www.w3.org/2000/svg">
					<title>Velvet</title>
					<path d="M195.159 171.945L246.846 34.9529C219.399 36.7891 193.305 36.5924 169.065 35.0841L139.59 113.187L109.961 28.5919C42.6754 17.9902 0 0 0 0C0 0 79.6128 184.339 79.6783 184.514C109.438 183.989 147.837 180.732 195.181 171.945H195.159Z" fill="#F0AAFF"></path>
					<path d="M428.282 115.089V83.1307C396.275 91.634 364.269 99.5907 332.262 106.127V92.5083L405.068 78.3217V62.1458L332.262 76.0483V62.43C364.269 57.5991 399.112 51.6534 428.282 46.8225V13.5964C428.02 13.6402 427.78 13.6839 427.518 13.7276C384.668 20.8756 325.826 29.1384 259.74 34.0786V157.736C326 140.905 381.636 126.806 428.282 115.133V115.089Z" fill="#F0AAFF"></path>
					<path d="M618.423 70.3431V28.3515C578.759 36.5924 539.116 46.5165 499.451 56.7248V0C499.451 0 499.386 0 499.364 0C497.051 0.568341 479.379 4.83089 445.627 10.6017V110.717C534.251 88.5956 587.66 75.9609 618.401 70.3212L618.423 70.3431Z" fill="#F0AAFF"></path>
					<path d="M445.627 129.756V173.409C461.641 170.284 477.634 167.639 493.779 164.797V269H571.384V151.9C587.159 149.342 603.129 146.938 618.401 144.796V89.1638C587.638 94.8254 534.251 107.657 445.627 129.778V129.756Z" fill="#F0AAFF"></path>
					<path d="M428.282 176.71V134.084C381.657 145.757 326.022 159.857 259.74 176.688V269H428.282V227.861C399.112 230.702 361.432 232.976 332.262 233.828V222.199L403.082 214.242V198.067L332.262 207.138V195.487C364.094 188.907 395.752 182.874 428.282 176.71Z" fill="#F0AAFF"></path>
					<path d="M187.458 192.34C183.705 202.242 167.604 244.933 167.604 244.933L151.131 197.936C127.023 201.105 105.947 202.701 87.751 203.291L116.136 268.956H213.225L246.802 179.858C225.573 184.973 205.828 189.061 187.436 192.318L187.458 192.34Z" fill="#F0AAFF"></path>
				</svg>